<svg width="24" height="24" viewBox="0 0 24 24" fill="none" xmlns="http://www.w3.org/2000/svg">
  <path fill-rule="evenodd" clip-rule="evenodd" d="M11.921 0C9.08998 0.00146886 6.35179 1.00416 4.19604 2.82879C2.0403 4.65341 0.607577 7.18099 0.154062 9.95955C-0.299453 12.7381 0.255806 15.5865 1.72057 17.9953C3.18533 20.4042 5.46406 22.2165 8.14932 23.1081C8.74173 23.218 8.96487 22.8509 8.96487 22.5387C8.96487 22.2265 8.95302 21.3213 8.94907 20.3317C5.63157 21.0484 4.93055 18.9318 4.93055 18.9318C4.38949 17.5574 3.6075 17.1961 3.6075 17.1961C2.52536 16.4617 3.68847 16.4755 3.68847 16.4755C4.88712 16.5599 5.51705 17.6987 5.51705 17.6987C6.57944 19.511 8.30729 18.9868 8.98659 18.6805C9.09322 17.9127 9.40326 17.3905 9.74488 17.094C7.09483 16.7955 4.31049 15.7784 4.31049 11.235C4.29407 10.0567 4.73382 8.91714 5.53877 8.05219C5.41633 7.75375 5.00756 6.54818 5.65527 4.91064C5.65527 4.91064 6.65645 4.59256 8.93526 6.12603C10.8899 5.59455 12.9521 5.59455 14.9068 6.12603C17.1836 4.59256 18.1828 4.91064 18.1828 4.91064C18.8325 6.54425 18.4237 7.74982 18.3013 8.05219C19.1088 8.91728 19.5494 10.0588 19.5315 11.2389C19.5315 15.7922 16.7412 16.7955 14.0872 17.0881C14.5138 17.4572 14.8949 18.1778 14.8949 19.2852C14.8949 20.8717 14.8811 22.1479 14.8811 22.5387C14.8811 22.8548 15.0963 23.2239 15.7006 23.1081C18.3862 22.2164 20.6651 20.4038 22.1298 17.9945C23.5946 15.5852 24.1496 12.7364 23.6955 9.95762C23.2415 7.17879 21.8081 4.65119 19.6516 2.82688C17.4951 1.00257 14.7563 0.000537822 11.9249 0H11.921Z" fill="#FFFFFF"/>
</svg>
