<svg width="30" height="29" viewBox="0 0 30 29" fill="none" xmlns="http://www.w3.org/2000/svg">
  <path d="M0 3.50211C0 2.53684 0.337847 1.74051 1.01351 1.11312C1.68918 0.485694 2.56758 0.171997 3.64865 0.171997C4.71043 0.171997 5.56949 0.480858 6.22587 1.09864C6.90153 1.7357 7.23938 2.5658 7.23938 3.58899C7.23938 4.51563 6.91121 5.28781 6.25483 5.90559C5.57916 6.54265 4.69112 6.86119 3.59073 6.86119H3.56178C2.49999 6.86119 1.64094 6.54265 0.984556 5.90559C0.328176 5.26852 0 4.46735 0 3.50211ZM0.376448 28.8399V9.49632H6.80502V28.8399H0.376448ZM10.3668 28.8399H16.7954V18.0388C16.7954 17.3631 16.8726 16.8419 17.027 16.4751C17.2973 15.8187 17.7075 15.2637 18.2577 14.81C18.8079 14.3563 19.4981 14.1295 20.3282 14.1295C22.4904 14.1295 23.5714 15.587 23.5714 18.5021V28.8399H30V17.7492C30 14.8921 29.3243 12.7251 27.973 11.2483C26.6216 9.77142 24.8359 9.033 22.6158 9.033C20.1255 9.033 18.1853 10.1044 16.7954 12.2473V12.3052H16.7664L16.7954 12.2473V9.49632H10.3668C10.4054 10.1141 10.4247 12.0349 10.4247 15.2589C10.4247 18.4828 10.4054 23.0098 10.3668 28.8399Z" fill="#0A66C2"/>
</svg>
