<svg width="24" height="24" viewBox="0 0 24 24" fill="none" xmlns="http://www.w3.org/2000/svg">
  <path d="M0 3.2012C0 2.42899 0.270278 1.79192 0.810811 1.29001C1.35134 0.788067 2.05406 0.537109 2.91892 0.537109C3.76835 0.537109 4.45559 0.784198 4.9807 1.27842C5.52123 1.78807 5.79151 2.45215 5.79151 3.2707C5.79151 4.01201 5.52897 4.62976 5.00386 5.12398C4.46333 5.63363 3.7529 5.88846 2.87259 5.88846H2.84942C1.99999 5.88846 1.31275 5.63363 0.787645 5.12398C0.262541 4.61433 0 3.97339 0 3.2012ZM0.301158 23.4715V7.99657H5.44402V23.4715H0.301158ZM8.29344 23.4715H13.4363V14.8305C13.4363 14.29 13.4981 13.873 13.6216 13.5796C13.8378 13.0545 14.166 12.6105 14.6062 12.2475C15.0463 11.8846 15.5984 11.7031 16.2626 11.7031C17.9923 11.7031 18.8571 12.8691 18.8571 15.2012V23.4715H24V14.5989C24 12.3132 23.4595 10.5796 22.3784 9.39811C21.2973 8.21665 19.8687 7.62591 18.0927 7.62591C16.1004 7.62591 14.5483 8.48305 13.4363 10.1973V10.2437H13.4131L13.4363 10.1973V7.99657H8.29344C8.32432 8.49077 8.33977 10.0274 8.33977 12.6066C8.33977 15.1857 8.32432 18.8074 8.29344 23.4715Z" fill="#0A66C2"/>
</svg>
