<svg width="32" height="32" viewBox="0 0 32 32" fill="none" xmlns="http://www.w3.org/2000/svg">
  <path d="M31.4583 14.9646L27.6667 11.1729V5.79167C27.6667 4.98959 27.0104 4.33334 26.2083 4.33334H20.8271L17.0354 0.541675C16.4667 -0.0270752 15.5479 -0.0270752 14.9792 0.541675L11.1729 4.33334H5.79167C4.98959 4.33334 4.33334 4.98959 4.33334 5.79167V11.1729L0.541675 14.9646C-0.0270752 15.5333 -0.0270752 16.4521 0.541675 17.0208L4.33334 20.8125V26.2083C4.33334 27.0104 4.98959 27.6667 5.79167 27.6667H11.1729L14.9646 31.4583C15.5333 32.0271 16.4521 32.0271 17.0208 31.4583L20.8125 27.6667H26.2083C27.0104 27.6667 27.6667 27.0104 27.6667 26.2083V20.8271L31.4583 17.0354C32.0271 16.4667 32.0271 15.5333 31.4583 14.9646V14.9646ZM24.6333 17.4292C24.1375 20.5208 21.9354 23.175 18.975 24.225C17.2104 24.8521 15.4604 24.8813 13.8708 24.4875C13.2729 24.3417 13.1708 23.5396 13.6813 23.175C15.9708 21.6 17.4583 18.975 17.4583 16C17.4583 13.025 15.9708 10.4 13.6958 8.82501C13.1854 8.47501 13.2729 7.67292 13.8854 7.51251C15.475 7.11876 17.225 7.14792 18.9896 7.77501C21.9354 8.82501 24.1521 11.4792 24.6479 14.5708C24.7208 15.0521 24.75 15.5333 24.75 16C24.7354 16.4667 24.7063 16.9479 24.6333 17.4292V17.4292Z" fill="#1053DC"/>
</svg>
