<svg width="30" height="31" viewBox="0 0 30 31" fill="none" xmlns="http://www.w3.org/2000/svg">
  <path d="M29.3821 8.28664C29.0361 7.00164 28.0229 5.98846 26.7379 5.6425C24.3903 5 14.9999 5 14.9999 5C14.9999 5 5.60953 5 3.26193 5.61779C2.00164 5.96375 0.963752 7.00164 0.61779 8.28664C0 10.6342 0 15.5024 0 15.5024C0 15.5024 0 20.3953 0.61779 22.7182C0.963752 24.0032 1.97693 25.0164 3.26193 25.3624C5.63424 26.0049 14.9999 26.0049 14.9999 26.0049C14.9999 26.0049 24.3903 26.0049 26.7379 25.3871C28.0229 25.0411 29.0361 24.0279 29.3821 22.7429C29.9999 20.3953 29.9999 15.5271 29.9999 15.5271C29.9999 15.5271 30.0246 10.6342 29.3821 8.28664Z" fill="#FF0000"/>
  <path d="M12.0098 19.9999L19.8186 15.5024L12.0098 11.0049V19.9999Z" fill="white"/>
</svg>
